<svg width="1440" height="600" xmlns="http://www.w3.org/2000/svg" class="transition duration-300 ease-in-out delay-150">
 <defs>
  <linearGradient y2="50%" x2="100%" y1="50%" x1="0%" id="gradient">
   <stop stop-color="#517eee88" offset="5%"/>
   <stop stop-color="#31cbfa88" offset="95%"/>
  </linearGradient>
  <linearGradient y2="50%" x2="100%" y1="50%" x1="0%" id="gradient">
   <stop stop-color="#517eeeff" offset="5%"/>
   <stop stop-color="#31cbfaff" offset="95%"/>
  </linearGradient>
 </defs>

 <g>
  <title>Layer 1</title>
  <path stroke="null" id="svg_1" class="transition-all duration-300 ease-in-out delay-150 path-0" fill="url(#gradient)" stroke-width="0" d="m0,600c0,0 0,-494 0,-494c104.20096,3.64 208.40191,7.28 303,18.525c94.59809,11.245 179.5933,30.095 269,25.935c89.4067,-4.16 183.22488,-31.33 293,-28.405c109.77512,2.925 235.50718,35.945 334,38.285c98.49282,2.34 169.74641,-26 241,-54.34c0,0 0,494 0,494l-1440,0z"/>
  <path stroke="null" id="svg_2" class="transition-all duration-300 ease-in-out delay-150 path-1" fill="url(#gradient)" stroke-width="0" d="m-0.00004,600.00004c0,0 0,-420.45721 0,-420.45721c97.91834,-46.39113 196.83803,-87.74777 278.79474,-126.13716c81.95671,-38.38939 151.9572,-55.68746 250.81743,-12.52521c98.86023,43.16225 245.60587,120.25089 364.76694,179.47256c119.16107,59.22167 216.74569,74.8897 311.75378,48.88166c95.00809,-26.00804 180.43019,-94.96508 249.83068,-147.75866c69.40049,-52.79358 -17.02296,478.52402 -17.02296,478.52402l-1438.94062,0z"/>
 </g>
</svg>