<?xml version="1.0" standalone="no"?><svg width="100%" height="100%" id="svg" viewBox="0 0 1440 600" xmlns="http://www.w3.org/2000/svg" class="transition duration-300 ease-in-out delay-150"><defs><linearGradient id="gradient" x1="0%" y1="50%" x2="100%" y2="50%"><stop offset="5%" stop-color="#517eee88"></stop><stop offset="95%" stop-color="#31cbfa88"></stop></linearGradient></defs><path d="M 0,600 C 0,600 0,200 0,200 C 104.20095693779902,202.94736842105263 208.40191387559804,205.89473684210526 303,215 C 397.59808612440196,224.10526315789474 482.5933014354067,239.36842105263156 572,236 C 661.4066985645933,232.63157894736844 755.2248803827753,210.63157894736844 865,213 C 974.7751196172247,215.36842105263156 1100.5071770334928,242.10526315789474 1199,244 C 1297.4928229665072,245.89473684210526 1368.7464114832537,222.94736842105263 1440,200 C 1440,200 1440,600 1440,600 Z" stroke="none" stroke-width="0" fill="url(#gradient)" class="transition-all duration-300 ease-in-out delay-150 path-0"></path><defs><linearGradient id="gradient" x1="0%" y1="50%" x2="100%" y2="50%"><stop offset="5%" stop-color="#517eeeff"></stop><stop offset="95%" stop-color="#31cbfaff"></stop></linearGradient></defs><path d="M 0,600 C 0,600 0,400 0,400 C 97.99043062200957,377.933014354067 195.98086124401914,355.86602870813397 279,340 C 362.01913875598086,324.13397129186603 430.0669856459332,314.46889952153117 529,335 C 627.9330143540668,355.53110047846883 757.7511961722487,406.2583732057416 877,432 C 996.2488038277513,457.7416267942584 1104.9282296650717,458.4976076555024 1197,449 C 1289.0717703349283,439.5023923444976 1364.5358851674641,419.7511961722488 1440,400 C 1440,400 1440,600 1440,600 Z" stroke="none" stroke-width="0" fill="url(#gradient)" class="transition-all duration-300 ease-in-out delay-150 path-1"></path></svg>
